<?xml version="1.0" encoding="UTF-8" standalone="no"?>
<!-- Created with Inkscape (http://www.inkscape.org/) -->

<svg
   width="517"
   height="260"
   viewBox="0 0 136.7897 68.791667"
   version="1.1"
   id="svg5"
   inkscape:version="1.1 (c68e22c387, 2021-05-23)"
   sodipodi:docname="speedmeterdrawing.svg"
   xmlns:inkscape="http://www.inkscape.org/namespaces/inkscape"
   xmlns:sodipodi="http://sodipodi.sourceforge.net/DTD/sodipodi-0.dtd"
   xmlns="http://www.w3.org/2000/svg"
   xmlns:svg="http://www.w3.org/2000/svg">
  <sodipodi:namedview
     id="namedview7"
     pagecolor="#505050"
     bordercolor="#eeeeee"
     borderopacity="1"
     inkscape:pageshadow="0"
     inkscape:pageopacity="0"
     inkscape:pagecheckerboard="0"
     inkscape:document-units="px"
     showgrid="false"
     units="px"
     height="256px"
     inkscape:snap-bbox="true"
     inkscape:bbox-paths="true"
     inkscape:bbox-nodes="true"
     inkscape:snap-bbox-edge-midpoints="true"
     inkscape:snap-bbox-midpoints="true"
     inkscape:object-paths="false"
     inkscape:snap-intersection-paths="false"
     inkscape:snap-smooth-nodes="false"
     inkscape:snap-midpoints="false"
     inkscape:snap-global="false"
     inkscape:zoom="1.842284"
     inkscape:cx="273.84486"
     inkscape:cy="257.83213"
     inkscape:window-width="1024"
     inkscape:window-height="745"
     inkscape:window-x="-8"
     inkscape:window-y="-8"
     inkscape:window-maximized="1"
     inkscape:current-layer="layer1"
     width="513px"
     showguides="true"
     inkscape:guide-bbox="true"
     inkscape:object-nodes="false" />
  <defs
     id="defs2">
    <rect
       x="-99.876022"
       y="261.08896"
       width="69.478973"
       height="49.39521"
       id="rect6009" />
    <rect
       x="-99.876022"
       y="261.08896"
       width="69.478973"
       height="49.39521"
       id="rect18339" />
  </defs>
  <g
     inkscape:label="Layer 1"
     inkscape:groupmode="layer"
     id="layer1">
    <path
       style="fill:#e4508f;fill-opacity:1;stroke:none;stroke-width:1.14345;stroke-linecap:round;stroke-linejoin:round"
       d="m 1.4660554,64.794445 c -0.733038,0 -1.32343411,0.798428 -1.32343411,1.790589 0,0.992162 0.59039611,1.791106 1.32343411,1.791106 h 8.9333096 c 0.733038,0 1.322917,-0.798944 1.322917,-1.791106 0,-0.992161 -0.589879,-1.790589 -1.322917,-1.790589 z"
       id="path506" />
    <path
       style="fill:#e4508f;fill-opacity:1;stroke:none;stroke-width:1.14345;stroke-linecap:round;stroke-linejoin:round"
       d="m 5.3065482,44.16034 c -0.448412,0.04078 -0.8260088,0.288539 -0.9572632,0.677826 -0.1909154,0.566235 0.2134784,1.211026 0.9068172,1.445429 l 4.1054998,1.387861 c 0.693339,0.234402 1.405279,-0.03292 1.596194,-0.599195 0.190916,-0.566234 -0.213439,-1.210512 -0.906777,-1.444914 L 5.9455185,44.239485 C 5.7288502,44.166236 5.5103725,44.14181 5.3065482,44.16034 Z"
       id="path500" />
    <path
       style="fill:#e4508f;fill-opacity:1;stroke:none;stroke-width:1.14345;stroke-linecap:round;stroke-linejoin:round"
       d="m 16.025225,25.699681 c -0.493241,0.03193 -1.030721,0.345037 -1.410193,0.874134 -0.578244,0.806239 -0.563942,1.799679 0.03218,2.227221 l 7.258053,5.205278 c 0.596119,0.427543 1.541301,0.122433 2.119543,-0.683806 0.578244,-0.806239 0.563987,-1.799161 -0.03213,-2.226704 l -7.258056,-5.205327 c -0.204916,-0.146968 -0.45103,-0.207579 -0.709394,-0.190842 z"
       id="path498" />
    <path
       style="fill:#e4508f;fill-opacity:1;stroke:none;stroke-width:1.14345;stroke-linecap:round;stroke-linejoin:round"
       d="m 30.304242,12.162787 c -0.183222,0.0024 -0.360093,0.05388 -0.514181,0.159163 -0.493081,0.336919 -0.558604,1.094506 -0.146762,1.698605 l 2.445331,3.586346 c 0.411842,0.604098 1.140412,0.81906 1.633493,0.482142 0.49308,-0.336919 0.558086,-1.094507 0.146243,-1.698605 l -2.444812,-3.586347 c -0.283141,-0.415317 -0.716225,-0.646687 -1.119312,-0.641304 z"
       id="path494" />
    <path
       style="fill:#e4508f;fill-opacity:1;stroke:none;stroke-width:1.14345;stroke-linecap:round;stroke-linejoin:round"
       d="m 49.293913,3.0433011 c -0.294272,-0.038251 -0.618915,-0.013224 -0.945493,0.085086 -0.95005,0.2859941 -1.54471,1.081802 -1.333152,1.784579 l 2.574295,8.5511949 c 0.211558,0.702777 1.146934,1.038416 2.096984,0.752421 0.95005,-0.285993 1.544275,-1.082388 1.332717,-1.785165 L 50.445479,3.8802967 C 50.306644,3.4190993 49.855707,3.1163149 49.293913,3.0433011 Z"
       id="path488" />
    <g
       transform="matrix(0.26458347,0,0,0.26458347,0.72604851,0.89855793)"
       id="text6007"
       style="font-size:20px;line-height:1.25;font-family:IRANSansX;-inkscape-font-specification:'IRANSansX, Normal';font-variant-ligatures:none;word-spacing:0px;white-space:pre;shape-inside:url(#rect6009)" />
    <g
       transform="matrix(-0.26458347,0,0,0.26458347,136.13446,0.90892838)"
       id="text18321"
       style="font-size:20px;line-height:1.25;font-family:IRANSansX;-inkscape-font-specification:'IRANSansX, Normal';font-variant-ligatures:none;word-spacing:0px;white-space:pre;shape-inside:url(#rect18339)" />
    <g
       id="g44390"
       style="fill:#aeddcd;fill-opacity:1"
       transform="matrix(1.2398344,0,0,1.2398344,-3.3615333,-15.315297)">
      <g
         aria-label="-10"
         id="text6873"
         style="font-size:5.29167px;line-height:1.25;font-family:IRANSansX;-inkscape-font-specification:'IRANSansX, Normal';font-variant-ligatures:none;word-spacing:0px;stroke-width:0.264583;fill:#556fb5;fill-opacity:1">
        <path
           d="m 14.31082,65.449467 v 0.720886 h -1.372011 v -0.720886 z"
           style="font-family:Impact;-inkscape-font-specification:Impact;fill:#556fb5;fill-opacity:1"
           id="path44874" />
        <path
           d="m 16.199594,63.341067 v 4.18321 H 15.15573 v -2.242759 q 0,-0.485759 -0.02326,-0.583944 -0.02325,-0.09819 -0.129191,-0.147278 -0.103353,-0.05168 -0.465088,-0.05168 h -0.103353 v -0.488343 q 0.75706,-0.162781 1.149801,-0.66921 z"
           style="font-family:Impact;-inkscape-font-specification:Impact;fill:#556fb5;fill-opacity:1"
           id="path44876" />
        <path
           d="m 19.067638,64.757002 v 1.395265 q 0,0.475423 -0.05168,0.692464 -0.05168,0.217041 -0.214458,0.40566 -0.162781,0.18862 -0.392741,0.271302 -0.22996,0.08268 -0.514181,0.08268 -0.374654,0 -0.622701,-0.08527 -0.248047,-0.08785 -0.395325,-0.271301 -0.147278,-0.183452 -0.20929,-0.38499 -0.06201,-0.204122 -0.06201,-0.645956 v -1.45986 q 0,-0.576192 0.09819,-0.862997 0.100769,-0.286804 0.395325,-0.45992 0.297139,-0.173116 0.718303,-0.173116 0.343648,0 0.61495,0.121439 0.271301,0.118856 0.40566,0.291972 0.134359,0.173116 0.180867,0.390158 0.04909,0.217041 0.04909,0.692464 z m -1.043865,-0.3514 q 0,-0.333313 -0.03359,-0.415995 -0.03101,-0.08527 -0.149862,-0.08527 -0.116272,0 -0.155029,0.09043 -0.03617,0.08785 -0.03617,0.410828 v 2.04122 q 0,0.36432 0.03359,0.43925 0.03617,0.07493 0.152445,0.07493 0.116272,0 0.152446,-0.08785 0.03617,-0.08785 0.03617,-0.395325 z"
           style="font-family:Impact;-inkscape-font-specification:Impact;fill:#556fb5;fill-opacity:1"
           id="path44878" />
      </g>
      <path
         id="path42395"
         style="opacity:1;fill:none;stroke:#556fb5;stroke-width:0.31263429;stroke-linecap:round;stroke-linejoin:round;stroke-miterlimit:4;stroke-dasharray:none;stroke-opacity:1"
         d="m 19.730589,62.848003 a 0.3066771,0.36336723 0 0 1 -0.306677,0.363368 0.3066771,0.36336723 0 0 1 -0.306677,-0.363368 0.3066771,0.36336723 0 0 1 0.306677,-0.363367 0.3066771,0.36336723 0 0 1 0.306677,0.363367 z" />
    </g>
    <g
       aria-label="0"
       id="text14955"
       style="font-size:5.29167px;line-height:1.25;font-family:IRANSansX;-inkscape-font-specification:'IRANSansX, Normal';font-variant-ligatures:none;word-spacing:0px;fill:#556fb5;fill-opacity:1;stroke-width:0.264583"
       transform="matrix(1.2397768,0.01195386,-0.01195386,1.2397768,-4.0862896,-10.514913)">
      <path
         d="m 26.258789,35.560625 v 1.395265 q 0,0.475423 -0.05168,0.692464 -0.05168,0.217042 -0.214457,0.405661 -0.162781,0.188619 -0.392742,0.271301 -0.22996,0.08268 -0.51418,0.08268 -0.374655,0 -0.622702,-0.08527 -0.248047,-0.08785 -0.395325,-0.271301 -0.147278,-0.183452 -0.209289,-0.38499 -0.06201,-0.204122 -0.06201,-0.645956 v -1.45986 q 0,-0.576192 0.09818,-0.862997 0.100769,-0.286804 0.395325,-0.45992 0.29714,-0.173116 0.718303,-0.173116 0.343648,0 0.61495,0.121439 0.271301,0.118856 0.40566,0.291972 0.134359,0.173117 0.180868,0.390158 0.04909,0.217041 0.04909,0.692464 z m -1.043864,-0.3514 q 0,-0.333313 -0.03359,-0.415995 -0.03101,-0.08527 -0.149862,-0.08527 -0.116272,0 -0.155029,0.09043 -0.03617,0.08785 -0.03617,0.410828 v 2.041221 q 0,0.364319 0.03359,0.43925 0.03617,0.07493 0.152446,0.07493 0.116272,0 0.152445,-0.08785 0.03617,-0.08785 0.03617,-0.395324 z"
         style="font-family:Impact;-inkscape-font-specification:Impact;fill:#556fb5;fill-opacity:1"
         id="path44882" />
    </g>
    <path
       id="ellipse42523"
       style="fill:none;fill-opacity:1;stroke:#556fb5;stroke-width:0.387614;stroke-linecap:round;stroke-linejoin:round;stroke-miterlimit:4;stroke-dasharray:none;stroke-opacity:1"
       d="m 28.888392,31.527412 a 0.38022883,0.4505152 0.55242565 0 1 -0.384554,0.446828 0.38022883,0.4505152 0.55242565 0 1 -0.375868,-0.45416 0.38022883,0.4505152 0.55242565 0 1 0.384555,-0.446829 0.38022883,0.4505152 0.55242565 0 1 0.375867,0.454161 z" />
    <g
       aria-label="10"
       id="text16169"
       style="font-size:5.29167px;line-height:1.25;font-family:IRANSansX;-inkscape-font-specification:'IRANSansX, Normal';font-variant-ligatures:none;word-spacing:0px;fill:#556fb5;fill-opacity:1;stroke-width:0.264583"
       transform="matrix(1.2398336,-0.00137068,0.00137068,1.2398336,-10.784486,-4.6833862)">
      <path
         d="m 49.6772,16.27143 v 4.183209 h -1.043864 v -2.242758 q 0,-0.485759 -0.02325,-0.583944 -0.02325,-0.09819 -0.129191,-0.147278 -0.103353,-0.05168 -0.465088,-0.05168 H 47.912449 V 16.94064 q 0.75706,-0.162781 1.149801,-0.66921 z"
         style="font-family:Impact;-inkscape-font-specification:Impact;fill:#556fb5;fill-opacity:1"
         id="path44886" />
      <path
         d="m 52.545244,17.687365 v 1.395264 q 0,0.475424 -0.05168,0.692465 -0.05168,0.217041 -0.214457,0.40566 -0.162781,0.188619 -0.392741,0.271302 -0.22996,0.08268 -0.514181,0.08268 -0.374654,0 -0.622701,-0.08527 -0.248047,-0.08785 -0.395325,-0.271302 -0.147278,-0.183451 -0.20929,-0.384989 -0.06201,-0.204122 -0.06201,-0.645956 v -1.45986 q 0,-0.576193 0.09819,-0.862997 0.100769,-0.286804 0.395325,-0.459921 0.297139,-0.173116 0.718302,-0.173116 0.343649,0 0.61495,0.12144 0.271302,0.118856 0.405661,0.291972 0.134358,0.173116 0.180867,0.390157 0.04909,0.217041 0.04909,0.692465 z m -1.043865,-0.3514 q 0,-0.333313 -0.03359,-0.415996 -0.03101,-0.08527 -0.149862,-0.08527 -0.116272,0 -0.15503,0.09043 -0.03617,0.08785 -0.03617,0.410828 v 2.04122 q 0,0.364319 0.03359,0.43925 0.03617,0.07493 0.152445,0.07493 0.116272,0 0.152446,-0.08785 0.03617,-0.08785 0.03617,-0.395325 z"
         style="font-family:Impact;-inkscape-font-specification:Impact;fill:#556fb5;fill-opacity:1"
         id="path44888" />
    </g>
    <path
       id="ellipse42525"
       style="fill:none;fill-opacity:1;stroke:#556fb5;stroke-width:0.387614;stroke-linecap:round;stroke-linejoin:round;stroke-miterlimit:4;stroke-dasharray:none;stroke-opacity:1"
       d="m 55.206447,14.806233 a 0.45051518,0.38022881 89.936658 0 1 -0.379731,0.450935 0.45051518,0.38022881 89.936658 0 1 -0.380726,-0.450094 0.45051518,0.38022881 89.936658 0 1 0.37973,-0.450935 0.45051518,0.38022881 89.936658 0 1 0.380727,0.450094 z" />
    <path
       d="m 84.35206,19.618941 -0.0077,0.884135 -2.847814,-0.02487 0.0065,-0.739983 q 1.283413,-2.058339 1.524744,-2.546388 0.244564,-0.491224 0.24697,-0.766714 0.0018,-0.211425 -0.07094,-0.314577 -0.06955,-0.106332 -0.216907,-0.107619 -0.147357,-0.0013 -0.222042,0.113395 -0.07148,0.114709 -0.07447,0.457469 l -0.0043,0.493323 -1.159627,-0.01013 0.0017,-0.189 q 0.0038,-0.435662 0.05083,-0.685134 0.04705,-0.252676 0.225369,-0.494595 0.178314,-0.241919 0.461303,-0.364389 0.282989,-0.12247 0.677007,-0.119029 0.772017,0.0067 1.162676,0.394591 0.393891,0.384673 0.388771,0.970892 -0.0039,0.445272 -0.232462,0.939839 -0.22537,0.494595 -1.328596,2.096388 z"
       style="font-size:5.29167px;line-height:1.25;font-family:Impact;-inkscape-font-specification:Impact;font-variant-ligatures:none;word-spacing:0px;fill:#556fb5;fill-opacity:1;stroke-width:0.328039"
       id="path44892" />
    <path
       d="m 87.930065,17.103299 -0.01511,1.729832 q -0.0051,0.589423 -0.07157,0.85795 -0.06642,0.268525 -0.270274,0.50061 -0.203856,0.232084 -0.489853,0.332102 -0.285998,0.100016 -0.63837,0.09694 -0.464492,-0.0041 -0.771095,-0.112459 -0.306574,-0.111601 -0.487181,-0.340636 -0.180607,-0.229035 -0.255305,-0.479572 -0.07467,-0.253739 -0.06988,-0.801518 l 0.01581,-1.809917 q 0.0062,-0.714355 0.131079,-1.068868 0.128037,-0.354486 0.495099,-0.565923 0.370264,-0.21141 0.892417,-0.206849 0.42605,0.0037 0.761092,0.157218 0.335068,0.150292 0.499771,0.366376 0.164702,0.216081 0.220013,0.48567 0.05851,0.269616 0.05336,0.859039 z M 86.6397,16.656337 q 0.0036,-0.413239 -0.03714,-0.516111 -0.03752,-0.106052 -0.184873,-0.107339 -0.144153,-0.0013 -0.193182,0.110435 -0.04579,0.108524 -0.04929,0.508948 l -0.0221,2.530678 q -0.0039,0.451678 0.03689,0.54494 0.04403,0.09329 0.188189,0.09455 0.144153,0.0013 0.189951,-0.107264 0.04579,-0.108524 0.04912,-0.489727 z"
       style="font-size:5.29167px;line-height:1.25;font-family:Impact;-inkscape-font-specification:Impact;font-variant-ligatures:none;word-spacing:0px;fill:#556fb5;fill-opacity:1;stroke-width:0.328039"
       id="path44894" />
    <path
       id="ellipse42527"
       style="fill:none;fill-opacity:1;stroke:#556fb5;stroke-width:0.387614;stroke-linecap:round;stroke-linejoin:round;stroke-miterlimit:4;stroke-dasharray:none;stroke-opacity:1"
       d="m 88.772657,14.743729 a 0.38022881,0.45051519 0.50039195 0 1 -0.384149,0.447177 0.38022881,0.45051519 0.50039195 0 1 -0.376279,-0.453818 0.38022881,0.45051519 0.50039195 0 1 0.384148,-0.447178 0.38022881,0.45051519 0.50039195 0 1 0.37628,0.453819 z" />
    <path
       d="m 107.07073,35.042361 q 0.29473,0.09931 0.43889,0.326759 0.14415,0.224245 0.14415,1.057158 0,0.618278 -0.14095,0.961054 -0.14096,0.339573 -0.48694,0.51897 -0.34597,0.176193 -0.88737,0.176193 -0.61507,0 -0.96745,-0.205025 -0.34919,-0.208228 -0.46131,-0.506155 -0.10898,-0.30113 -0.10898,-1.041141 v -0.410051 h 1.29421 v 0.842525 q 0,0.336368 0.0384,0.42927 0.0417,0.0897 0.17939,0.0897 0.15056,0 0.19862,-0.115329 0.0481,-0.11533 0.0481,-0.602261 v -0.358793 q 0,-0.297927 -0.0673,-0.435678 -0.0673,-0.137752 -0.19861,-0.179397 -0.13134,-0.04484 -0.50936,-0.05125 v -0.752825 q 0.46131,0 0.57023,-0.03524 0.10898,-0.03524 0.15697,-0.15377 0.0481,-0.118528 0.0481,-0.371606 v -0.288317 q 0,-0.272298 -0.0576,-0.358793 -0.0544,-0.08649 -0.173,-0.08649 -0.13454,0 -0.1858,0.0929 -0.0481,0.0897 -0.0481,0.387626 v 0.426066 h -1.29421 v -0.442084 q 0,-0.743215 0.33957,-1.0027 0.33958,-0.262687 1.07958,-0.262687 0.92581,0 1.25578,0.361997 0.32996,0.361997 0.32996,1.005902 0,0.435678 -0.11853,0.631092 -0.11853,0.192212 -0.41646,0.352387 z"
       style="font-size:5.29167px;line-height:1.25;font-family:Impact;-inkscape-font-specification:Impact;font-variant-ligatures:none;word-spacing:0px;fill:#556fb5;fill-opacity:1;stroke-width:0.328039"
       id="path44898" />
    <path
       d="m 111.17123,34.54902 v 1.729898 q 0,0.589446 -0.0641,0.85854 -0.0641,0.269095 -0.26589,0.502952 -0.20182,0.233857 -0.48693,0.336369 -0.28512,0.10251 -0.6375,0.10251 -0.4645,0 -0.77205,-0.105721 -0.30754,-0.108919 -0.49013,-0.336368 -0.1826,-0.22745 -0.25948,-0.477324 -0.0769,-0.253078 -0.0769,-0.800879 v -1.809984 q 0,-0.714383 0.12175,-1.069974 0.12494,-0.355589 0.49013,-0.570224 0.36841,-0.214635 0.89059,-0.214635 0.42607,0 0.76243,0.150564 0.33637,0.147362 0.50295,0.361997 0.16659,0.214635 0.22424,0.483731 0.0609,0.269095 0.0609,0.858541 z m -1.29422,-0.435678 q 0,-0.413253 -0.0417,-0.515765 -0.0384,-0.10572 -0.1858,-0.10572 -0.14416,0 -0.19221,0.112118 -0.0449,0.108919 -0.0449,0.509359 v 2.530774 q 0,0.451697 0.0417,0.544598 0.0449,0.0929 0.189,0.0929 0.14417,0 0.18902,-0.10892 0.0449,-0.108919 0.0449,-0.490137 z"
       style="font-size:5.29167px;line-height:1.25;font-family:Impact;-inkscape-font-specification:Impact;font-variant-ligatures:none;word-spacing:0px;fill:#556fb5;fill-opacity:1;stroke-width:0.328039"
       id="path44900" />
    <path
       id="ellipse42529"
       style="fill:none;fill-opacity:1;stroke:#556fb5;stroke-width:0.387614;stroke-linecap:round;stroke-linejoin:round;stroke-miterlimit:4;stroke-dasharray:none;stroke-opacity:1"
       d="m 111.99318,32.178976 a 0.38022882,0.45051519 0 0 1 -0.38023,0.450515 0.38022882,0.45051519 0 0 1 -0.38023,-0.450515 0.38022882,0.45051519 0 0 1 0.38023,-0.450515 0.38022882,0.45051519 0 0 1 0.38023,0.450515 z" />
    <g
       aria-label="40"
       id="text31607"
       style="font-size:5.29167px;line-height:1.25;font-family:IRANSansX;-inkscape-font-specification:'IRANSansX, Normal';font-variant-ligatures:none;word-spacing:0px;fill:#556fb5;fill-opacity:1;stroke-width:0.264583"
       transform="matrix(1.2398344,0,0,1.2398344,-27.186603,-15.359812)">
      <path
         d="m 118.7805,63.351435 v 2.733685 h 0.29714 v 0.713135 h -0.29714 v 0.73639 h -1.04387 v -0.73639 H 116.4964 V 66.08512 l 0.90175,-2.733685 z m -1.04387,2.733685 v -1.780254 l -0.45992,1.780254 z"
         style="font-family:Impact;-inkscape-font-specification:Impact;fill:#556fb5;fill-opacity:1"
         id="path44904" />
      <path
         d="m 121.75706,64.76737 v 1.395265 q 0,0.475423 -0.0517,0.692465 -0.0517,0.217041 -0.21446,0.40566 -0.16278,0.188619 -0.39274,0.271301 -0.22996,0.08268 -0.51418,0.08268 -0.37466,0 -0.6227,-0.08527 -0.24805,-0.08785 -0.39533,-0.271301 -0.14728,-0.183451 -0.20929,-0.38499 -0.062,-0.204122 -0.062,-0.645955 V 64.76737 q 0,-0.576192 0.0982,-0.862996 0.10077,-0.286805 0.39533,-0.459921 0.29714,-0.173116 0.7183,-0.173116 0.34365,0 0.61495,0.12144 0.2713,0.118855 0.40566,0.291972 0.13436,0.173116 0.18087,0.390157 0.0491,0.217041 0.0491,0.692464 z m -1.04386,-0.351399 q 0,-0.333314 -0.0336,-0.415996 -0.031,-0.08527 -0.14986,-0.08527 -0.11628,0 -0.15503,0.09043 -0.0362,0.08785 -0.0362,0.410828 v 2.04122 q 0,0.364319 0.0336,0.43925 0.0362,0.07493 0.15245,0.07493 0.11627,0 0.15244,-0.08785 0.0362,-0.08785 0.0362,-0.395325 z"
         style="font-family:Impact;-inkscape-font-specification:Impact;fill:#556fb5;fill-opacity:1"
         id="path44906" />
    </g>
    <path
       id="ellipse42521"
       style="fill:none;fill-opacity:1;stroke:#556fb5;stroke-width:0.387614;stroke-linecap:round;stroke-linejoin:round;stroke-miterlimit:4;stroke-dasharray:none;stroke-opacity:1"
       d="m 124.59392,62.57416 a 0.38022882,0.45051519 0 0 1 -0.38022,0.450515 0.38022882,0.45051519 0 0 1 -0.38023,-0.450515 0.38022882,0.45051519 0 0 1 0.38023,-0.450515 0.38022882,0.45051519 0 0 1 0.38022,0.450515 z" />
    <path
       style="fill:#e4508f;fill-opacity:1;stroke:none;stroke-width:1.14345;stroke-linecap:round;stroke-linejoin:round"
       d="m 135.46879,64.794445 c 0.73304,0 1.32344,0.798428 1.32344,1.790589 0,0.992162 -0.5904,1.791106 -1.32344,1.791106 h -8.93331 c -0.73303,0 -1.32291,-0.798944 -1.32291,-1.791106 0,-0.992161 0.58988,-1.790589 1.32291,-1.790589 z"
       id="path1680" />
    <path
       style="fill:#e4508f;fill-opacity:1;stroke:none;stroke-width:1.14345;stroke-linecap:round;stroke-linejoin:round"
       d="m 131.6283,44.16034 c 0.44841,0.04078 0.82601,0.288539 0.95726,0.677826 0.19092,0.566235 -0.21347,1.211026 -0.90681,1.445429 l -4.1055,1.387861 c -0.69334,0.234402 -1.40528,-0.03292 -1.5962,-0.599195 -0.19091,-0.566234 0.21344,-1.210512 0.90678,-1.444914 l 4.1055,-1.387862 c 0.21667,-0.07325 0.43515,-0.09768 0.63897,-0.07915 z"
       id="path1682" />
    <path
       style="fill:#e4508f;fill-opacity:1;stroke:none;stroke-width:1.14345;stroke-linecap:round;stroke-linejoin:round"
       d="m 120.90962,25.699681 c 0.49325,0.03193 1.03073,0.345037 1.4102,0.874134 0.57824,0.806239 0.56394,1.799679 -0.0322,2.227221 l -7.25806,5.205278 c -0.59611,0.427543 -1.5413,0.122433 -2.11954,-0.683806 -0.57824,-0.806239 -0.56399,-1.799161 0.0321,-2.226704 l 7.25806,-5.205327 c 0.20491,-0.146968 0.45103,-0.207579 0.70939,-0.190842 z"
       id="path1684" />
    <path
       style="fill:#e4508f;fill-opacity:1;stroke:none;stroke-width:1.14345;stroke-linecap:round;stroke-linejoin:round"
       d="m 106.63061,12.162787 c 0.18322,0.0024 0.36009,0.05388 0.51418,0.159163 0.49308,0.336919 0.5586,1.094506 0.14676,1.698605 l -2.44533,3.586346 c -0.41184,0.604098 -1.14041,0.81906 -1.63349,0.482142 -0.49308,-0.336919 -0.55809,-1.094507 -0.14625,-1.698605 l 2.44482,-3.586347 c 0.28314,-0.415317 0.71622,-0.646687 1.11931,-0.641304 z"
       id="path1686" />
    <path
       style="fill:#e4508f;fill-opacity:1;stroke:none;stroke-width:1.14345;stroke-linecap:round;stroke-linejoin:round"
       d="m 87.640932,3.0433011 c 0.294272,-0.038251 0.618915,-0.013224 0.945493,0.085086 0.95005,0.2859941 1.54471,1.081802 1.333152,1.784579 l -2.574295,8.5511949 c -0.211558,0.702777 -1.146934,1.038416 -2.096984,0.752421 -0.95005,-0.285993 -1.544275,-1.082388 -1.332717,-1.785165 l 2.573785,-8.5511203 c 0.138835,-0.4611974 0.589772,-0.7639818 1.151566,-0.8369956 z"
       id="path1688" />
    <path
       style="fill:#e4508f;fill-opacity:1;stroke:none;stroke-width:1.14345;stroke-linecap:round;stroke-linejoin:round"
       d="m 68.484212,0.28877571 c 0.596975,0.002873 1.074754,0.5955724 1.071254,1.32860179 l -0.02066,4.3361717 c -0.0035,0.733029 -0.487199,1.3206197 -1.084173,1.3177498 -0.596975,-0.00287 -1.074754,-0.5950559 -1.071254,-1.3280852 l 0.02118,-4.3361716 c 0.0035,-0.73302939 0.48668,-1.32113949 1.083653,-1.31826649 z"
       id="path1690" />
  </g>
</svg>
